<?xml version="1.0" encoding="UTF-8"?>
<svg id="Layer_2_xA0_Image" xmlns="http://www.w3.org/2000/svg" version="1.1" viewBox="0 0 3044.2 3509.87">
  <!-- Generator: Adobe Illustrator 29.8.7, SVG Export Plug-In . SVG Version: 2.1.1 Build 1)  -->
  <defs>
    <style>
      .st0 {
        fill: #8e8fc6;
      }

      .st1 {
        fill: #21222f;
      }

      .st2 {
        fill: #282939;
      }

      .st3 {
        fill: #606186;
      }

      .st4 {
        fill: #3a3b53;
      }

      .st5 {
        fill: #1a1a25;
      }

      .st6 {
        fill: #747398;
      }

      .st7 {
        fill: #21212e;
      }

      .st8 {
        fill: #595a7d;
      }

      .st9 {
        fill: #222230;
      }

      .st10 {
        fill: #cacaff;
      }

      .st11 {
        fill: #e4e4ff;
      }

      .st12 {
        fill: #191a24;
      }

      .st13 {
        fill: #252533;
      }

      .st14 {
        fill: #ccf;
      }

      .st15 {
        fill: #181822;
      }

      .st16 {
        fill: #65648a;
      }

      .st17 {
        fill: #6e6d91;
      }

      .st18 {
        fill: #bcbcff;
      }

      .st19 {
        fill: #535473;
      }

      .st20 {
        fill: #6c6d96;
      }

      .st21 {
        fill: #2b2b3c;
      }

      .st22 {
        fill: #a6a6e5;
      }

      .st23 {
        fill: #0f0f14;
      }

      .st24 {
        fill: #8a8bc0;
      }

      .st25 {
        fill: #8889bf;
      }

      .st26 {
        fill: #232331;
      }

      .st27 {
        fill: #13131a;
      }

      .st28 {
        fill: #1f202c;
      }

      .st29 {
        fill: #0c0c0f;
      }
    </style>
  </defs>
  <g>
    <path class="st19" d="M-64.16,1197.88"/>
    <polygon class="st25" points="-2181.75 2601.45 -2201.33 2479.54 -2201.32 2479.54 -2181.75 2601.45"/>
    <path class="st25" d="M-2462.18,2507.97c-10.81,3.9-22.33,5.74-23.64,5.94,9.15-1.8,16.46-3.76,22.25-5.79h0l1.38-.15Z"/>
    <polygon class="st25" points="-1489.66 2538.88 -1491.03 2568.79 -1491.03 2538.52 -1489.66 2538.88"/>
    <path class="st18" d="M-1655.27,2501.42l4.02-5.72.22.06-3.94,5.63c-.11.03-.21.05-.3.03Z"/>
    <path class="st25" d="M-155.41,2895.41l-1459.38,249.33-1405.25-575.95,179.61-19.58,73.32,34.63,108.79-52.46-.28-2,39.96-4.35,13.6,31.29s121.54,49.87,179.26,48.62c0,0,133.83,13.71,163.29,11.22,29.47-2.5,70.61-3.24,80.73-14.71l21.17,131.9,254.99,74.8v-74.8l162.45-34.91s-69.78-50.87-99.37-182.07c.02.04.03.06.03.06l33.04-22.45,3.58-39.59,144.25,38.55v17.51l170.58,58.34v201.96l631.9,203.21,562.33-94.75v-21.57l141.39,37.78Z"/>
    <path d="M-1653.25,2488.9s0,.04-.02.06t0,.02l-2.17,5.6-6.16,15.87v-245.84s-91.35,61.09-134.32,79.79l-9.93,110-3.58,39.59-33.04,22.45s0-.02-.03-.06h0s0-.03,0-.04c-.69-1.33-8.39-17.28-13.29-74.47-4.45-51.79-6.59-137.42.85-276.67v-.08c0-.06,0-.1,0-.15l42.92-30.19s.03-.02.05-.03c.02-.02.04-.03.06-.04,119.28-73.42,173.25-71.54,173.25-71.54,0,0,61.78-5.99,84.72,68.56,19.53,63.48-81.58,299.95-99.29,357.16Z"/>
    <polygon class="st8" points="-1313.41 673.88 -1644.92 673.88 -1775.06 384.66 -1468.11 384.66 -1313.41 673.88"/>
    <polygon class="st3" points="-1576.16 384.66 -1775.06 384.66 -1804.53 297.4 -1696.48 297.4 -1576.16 384.66"/>
    <path class="st21" d="M-1775.06,384.66c-39.04,25.37-94.97,164.72-130.52,262.79,0,0,0,.02,0,.03l44.58-350.08h56.47l29.47,87.26Z"/>
    <path class="st13" d="M-1644.92,673.88l-171.89,316.65c-.06.55-.18,1.11-.36,1.66-.63-.56-1.33-1.11-2.1-1.66l-120.26-244.21-.07-.13s13.66-42.6,34-98.71c0,0,0-.02,0-.03,35.54-98.07,91.48-237.42,130.52-262.79l130.14,289.22Z"/>
    <path class="st20" d="M-1817.17,992.19c-14.05,42.36-394.58,84.3-466.73,91.88h-.03c-.11,0-.19.02-.24.03h-.07l-114.53-250.64s103.14-12.46,289.76-34.91c179.37-21.56,170.46-50.04,169.5-52.22l120.26,244.21c.76.55,1.46,1.1,2.1,1.66Z"/>
    <path class="st20" d="M-2283.92,1084.07c-.07,0-.16.02-.24.03.06,0,.13-.02.24-.03Z"/>
    <path class="st28" d="M-2284.24,1084.1h0c-1.28,3.77-263.33,772.61-375.08,1097.41l-.02.06c-12.53,36.43-23.18,67.27-31.35,90.81-1.44,3.27-2.86,6.58-4.25,9.9l-.07.14c-38.91,92.76-58.27,198.34-66.79,258.22-2.94,20.62-4.59,35.82-5.3,43.21l-73.32-34.63-23.59-11.15-20.97-66.51,127.69-191.98,27.01-154.59s63.85-271.76,162.07-805.33c98.23-533.56,169.43-486.19,169.43-486.19l114.53,250.64Z"/>
    <path class="st28" d="M-2593.59,2190.93c-.14.41-.28.79-.41,1.19l-3.84,8.71c1.39-3.32,2.81-6.62,4.25-9.9Z"/>
    <path class="st7" d="M-897.07,1623.06l-.81,39.57-.17,7.83-192.14-38.69c-.09-.02-.12-.03-.2-.03-3.18-.11-86.74-1.67-139.59-150.95-.03-.09-.05-.19-.08-.27l-186.17-414.49v-.02s-.31-.67-.31-.67l-.69-.19h-.03s-.03-.03-.04-.03l-157.9-44.4c-.4-.11-.75-.37-.96-.72v-56.89l132.6-97.25,6.09-8.97h0s65.11-30.91,138.78,71.31c73.67,102.22,142.43,234.37,142.43,234.37l130.14,269.27,68.68,139.5c.05.09.07.13.13.22,1.59,2.18,34.79,47.35,53.96,49.78,1.78.23,3.85.81,6.26,1.72Z"/>
    <path class="st7" d="M-1416.25,1066c-.2-.41-.55-.72-.99-.86l.69.19.3.67Z"/>
    <path class="st7" d="M-795.28,1683.67v7.47c-.08,0-.17-.02-.26-.04l-.18-.04.44-7.39Z"/>
    <path class="st7" d="M-708.32,1679.47l-67.71,3.27.34-15.02c19.29,4.18,41.13,7.62,65.82,9.72,1.16.09,1.7,1.13,1.55,2.02Z"/>
    <path d="M-898.05,1670.46l-3.93,190.89-183.06,26.78s-3.03.97-8.52,1.94v-.19c-13.61,2.02-26.65,2.31-39.13,1.11-.06,0-.11,0-.17-.02-32.13-3.15-60.58-16.19-85.43-34.78-.17-.12-.34-.25-.49-.37-50.49-37.99-86.17-98.86-108.09-146.09,0-.03-.02-.05-.03-.07-9.85-21.8-19.32-46.16-28.25-73.35l-98.23-179.52s-27.02-37.4-56.48-37.4c0,0-14.73,49.87-93.31,107.21l-99.74,178.98-5.85,10.51-77.75,126.71h0s-1.92,3.12-1.92,3.12l-51.9,84.59v-250.01c0-3.38-.07-6.75-.21-10.12v-.24c-.13-2.73-.29-5.47-.5-8.2l-12.59-162.76h0s0-.39,0-.39h-.46l-85.48-69.43h-110.5l-38.87,16.38h-.02c-32.99,6.07-63.62,21.07-89.14,37.58h0l-2.11.89-2.02,1.83c-3.86,2.57-7.6,5.18-11.19,7.78-.6.44-1.19.87-1.79,1.31-1.24.9-2.46,1.81-3.66,2.72-.92.69-1.84,1.38-2.74,2.07-10.06,7.68-18.83,15.17-26.05,21.72-.4.37-.79.73-1.18,1.08-.19.17-.37.33-.55.5-1.36,1.25-2.66,2.45-3.89,3.62-.71.65-1.39,1.31-2.04,1.93-.33.32-.65.63-.97.94-.64.62-1.27,1.22-1.86,1.81-.3.29-.59.58-.88.86-.3.28-.58.57-.86.84-.47.46-.91.91-1.35,1.34-3.51,3.52-6.07,6.24-7.53,7.83-.2.21-.37.4-.52.57-.2.21-.35.38-.48.53-.13.13-.22.24-.3.32-.08.09-.13.15-.16.19,0,0-.02,0-.02,0-6.77,5.66-16.56,15.09-30.35,30.82t-.02.02c-6.67,7.61-14.27,16.68-22.93,27.51,0,0,0,.02-.02.03-32.64,40.86-80.13,106.7-148.31,212.76-.03.04-.05.07-.07.1l-106.43,152.67-19.53,50.89s0,0-.02.04c-1.65,3.16-112.96,216.98-100.77,367.95l20.11,142.61.28,2-108.79,52.46c.72-7.39,2.37-22.59,5.3-43.21,8.52-59.88,27.88-165.46,66.79-258.22l.07-.14,3.84-8.71c.13-.4.27-.79.41-1.19,8.17-23.54,18.82-54.38,31.35-90.81l.02-.06c111.76-324.8,373.81-1093.64,375.08-1097.4h0s.07,0,.07,0c.08,0,.17-.02.24-.03h.03c72.15-7.58,452.68-49.52,466.73-91.88.19-.55.31-1.11.36-1.66l171.89-316.65h331.51l-124.05,183h0s-6.09,8.98-6.09,8.98l-132.6,97.25v57.34l.96.26,157.93,44.42h.03c.44.15.79.46.99.87v.02s186.18,414.49,186.18,414.49c.04.09.06.19.08.27,52.86,149.27,136.42,150.83,139.59,150.95.08,0,.11,0,.2.03l192.14,38.69Z"/>
    <path d="M-2283.92,1084.07c-.07,0-.16.02-.24.03.06,0,.13-.02.24-.03Z"/>
    <polygon points="-1853.64 1499.16 -1854.11 1498.78 -1853.65 1498.78 -1853.64 1499.16"/>
    <path d="M-1416.25,1066c-.2-.41-.55-.72-.99-.86l.69.19.3.67Z"/>
    <path d="M-1218.78,1855.81c-35.95-26.37-74.24-71.14-108.09-146.09,21.93,47.23,57.6,108.1,108.09,146.09Z"/>
    <path d="M-1093.56,1889.87v.19c-8.19,1.45-21.87,2.86-39.13.92,12.48,1.2,25.53.92,39.13-1.11Z"/>
    <path d="M-795.28,1683.67v7.47c-.08,0-.17-.02-.26-.04l-.18-.04.44-7.39Z"/>
    <path class="st2" d="M-1905.59,2733.35v74.8l-254.99-74.8-21.17-131.9-19.56-121.91-82.92-516.62-53.15,187.58c-.21,2.04-.42,4.08-.62,6.1-2.81,27.32-5.65,52.26-8.48,75.06l-26.84,163.32v.03c-.02.07-.04.13-.06.19v.05s-25.38,73.81-25.38,73.81h0c-17.08,5.79-33.48,9.69-49.16,12.01h-.02s-.05,0-.14.02c0,0-.03,0-.05,0-7.59,1.12-14.99,1.86-22.24,2.28-.16,0-.31,0-.47.02-41.34,1.59-131.24-6.89-207.74-96.46-.03-.05-.07-.09-.11-.13t0-.02c-12.19-150.96,99.12-364.79,100.77-367.95,0-.03.02-.04.02-.04l19.53-50.89,103.93-148.78c.84-1.31,1.67-2.6,2.5-3.89.03-.04.05-.07.07-.1,68.18-106.06,115.67-171.9,148.31-212.76,0,0,.02-.02.02-.03,8.66-10.83,16.25-19.9,22.93-27.51t.02-.02c13.79-15.73,23.59-25.16,30.35-30.82,0,0,0,0,.02,0,.26-.13,3.28-1.64,8.28-4.06h0c23.45-11.35,90.58-42.71,124.29-47.04,4.88-.62,9.07-.69,12.31-.04,6.83,1.37,12.87,4.29,18.14,8,13.95,7.98,22.39,21.1,27.38,35.49,11.43,32.93,4.83,72.53,4.83,72.53l-12.27,605.87c-4.57,101.96,1.39,184.96,10.67,249.01,15.69,108.26,40.89,162.39,40.89,162.39l110.12,107.21Z"/>
    <path class="st5" d="M-1743.13,2698.44l-162.45,34.91-110.12-107.21s-25.2-54.13-40.89-162.39c-9.28-64.05-15.24-147.06-10.67-249.01l12.27-605.87s6.61-39.6-4.83-72.53l95.68-37.17h110.5v.19s0-.19,0-.19l13.08,170.97v.13s0,52.46,0,52.46l.2,189.94v.09s-.02.09-.02.09l-.02.29c-.61,7.5-8.28,103.2-13.26,218.81-.47,10.84-.91,21.87-1.32,33.01,0,.05,0,.09,0,.15v.08c-7.44,139.25-5.29,224.88-.85,276.67,4.9,57.19,12.6,73.14,13.29,74.47,0,0,0,.02,0,.03h0c29.59,131.21,99.37,182.08,99.37,182.08Z"/>
    <polygon class="st5" points="-1853.64 1499.16 -1853.64 1499.17 -1964.14 1499.17 -1854.11 1498.78 -1853.65 1498.78 -1853.64 1499.16"/>
    <path class="st2" d="M-2447.94,2481.06c-.06,0-.1.02-.15.02.09-.02.14-.03.14-.03h0Z"/>
    <polygon class="st5" points="-1743.13 2698.44 -1743.13 2765.76 -1905.59 2808.15 -1905.59 2733.35 -1743.13 2698.44"/>
    <path class="st0" d="M-1854.11,1498.78l-110.03.39-95.68,37.17c-4.99-14.39-13.43-27.52-27.38-35.49-5.27-3.71-11.31-6.62-18.14-8-3.24-.65-7.43-.59-12.31.04-33.71,4.32-100.84,35.69-124.29,47.03h0c-5,2.43-8.02,3.94-8.28,4.07.03-.04.07-.1.16-.19.07-.09.17-.19.3-.32.12-.15.28-.32.48-.53.15-.17.33-.36.52-.57,1.46-1.59,4.02-4.31,7.53-7.83.44-.44.89-.88,1.35-1.34.28-.27.56-.56.86-.84.29-.28.58-.57.88-.86.6-.59,1.22-1.19,1.86-1.81.32-.3.64-.61.97-.94.65-.62,1.33-1.28,2.04-1.93,1.23-1.17,2.53-2.38,3.89-3.62.18-.17.36-.33.55-.5.39-.35.78-.71,1.18-1.08,7.21-6.55,15.99-14.03,26.05-21.72.9-.69,1.82-1.38,2.74-2.07,1.2-.91,2.42-1.82,3.66-2.72.6-.44,1.19-.87,1.79-1.31,3.6-2.6,7.33-5.2,11.19-7.78,1.36-.91,2.73-1.82,4.13-2.72h0c25.52-16.51,56.15-31.52,89.14-37.58h.02s38.87-16.39,38.87-16.39h110.5l85.48,69.43Z"/>
    <polygon class="st0" points="-1853.64 1499.16 -1853.64 1499.17 -1964.14 1499.17 -1854.11 1498.78 -1853.64 1499.16"/>
    <path class="st0" d="M-2036.58,1463.01"/>
    <path class="st28" d="M-2462.18,2507.97c-10.81,3.9-22.33,5.74-23.64,5.94-.07,0-.12.02-.12.02-62.85,12.27-92.38,23.34-93.3,23.68h-.02s-25.78,18.71-25.78,18.71l-13.6-31.29-60.06-138.24s.08.09.11.13c76.49,89.57,166.4,98.05,207.74,96.46.16,0,.31-.02.47-.02,12.89-.53,20.94-2.02,22.24-2.28.02,0,.04,0,.05,0,.05,0,.09,0,.15-.02,2.94,3.01,4.52,5.78,5.05,8.33,1.8,8.59-8.38,14.64-19.29,18.58Z"/>
    <path d="M-2181.75,2601.45c-10.12,11.48-51.27,12.22-80.73,14.71-29.47,2.49-163.29-11.22-163.29-11.22-57.71,1.25-179.26-48.62-179.26-48.62l25.78-18.7h.02c.91-.35,30.45-11.42,93.3-23.69,0,0,.05,0,.12-.02,1.31-.2,12.83-2.04,23.64-5.94,10.91-3.95,21.09-9.99,19.29-18.58-.7-4.74-4.77-8.1-5.04-8.33,15.67-2.32,32.08-6.22,49.16-12h0s25.37-73.82,25.37-73.82v-.05s.04-.07.04-.07l.02-.12v-.03s26.85-163.32,26.85-163.32c2.83-22.8,5.67-47.74,8.48-75.06.2-2.02.42-4.06.62-6.1l53.15-187.58.83,5.2,82.08,511.42,19.57,121.91Z"/>
    <path class="st26" d="M-1093.56,1889.87v53.09s-.09,0-.26.02l-.29.03c-.18.02-.4.04-.67.06-.17,0-.34.03-.54.05-.09,0-.2.02-.3.03l-1.02.09c-.84.08-1.85.16-2.98.26-.33.03-.66.06-1.01.09-.18.02-.35.04-.53.05-.33.03-.67.06-1.02.09l-82.32,6.75c-4.57,0-95.34,31.34-107.84,35.67l-.28.09-.25.09c-.08.03-.16.05-.22.08-.11.04-.21.07-.29.09-.08.03-.16.06-.21.08-.11.04-.17.06-.17.06,0,0-.03-.41-.09-1.18l1.42-2.03v-54.42c0-25.78-5.83-51.47-18.65-73.71-42.38-73.53-118.86-53.09-118.86-53.09l-94.46,5.17-144.69,17.27-117.4,18.2,77.75-126.71,5.85-10.51s37.66,15.33,349.24-64.37c0,0,8.72,29.6,26.76,68.45,0,.02.02.04.03.07,21.93,47.23,57.6,108.1,108.09,146.09.16.12.33.25.49.37,24.85,18.59,53.3,31.63,85.43,34.78.06,0,.11,0,.17.02,12.48,1.2,25.53.92,39.13-1.11Z"/>
    <path class="st29" d="M-1292.44,1983.39l-1.42,2.03c.07.78.09,1.18.09,1.18l-276.74,394.1-1.78,2.54-78.97,112.46-4.02,5.72-6.34,9.03,6.16-15.87,2.17-5.6s0,0,0-.02c0-.02,0-.04.02-.06,17.71-57.21,118.82-293.68,99.29-357.16-22.94-74.55-84.72-68.56-84.72-68.56,0,0-53.97-1.88-173.25,71.54-.02,0-.04.02-.06.04-.02,0-.03.02-.05.03l-42.92,30.19c.41-11.15.86-22.17,1.32-33.01,4.99-115.61,12.66-211.31,13.26-218.81l.02-.29v-.09s.02-.09.02-.09l-.2-189.94v-52.36c.14,3.38.21,6.75.21,10.12v250.01l51.9-84.59,1.92-3.11h0s117.4-18.21,117.4-18.21l144.69-17.27,94.46-5.17s76.47-20.44,118.86,53.09c12.81,22.25,18.65,47.94,18.65,73.71v54.42Z"/>
    <path d="M-1335.51,2339.41l-155.52,17.45v211.93l-170.58-58.34,6.34-9.03,4.02-5.72,78.97-112.46,1.78-2.54,276.74-394.1s.06-.02.17-.06c.06-.02.13-.05.21-.08.07-.03.18-.06.29-.09.07-.03.14-.05.22-.08l.25-.09.28-.09c12.51-4.33,103.28-35.67,107.84-35.67,3.95,0,60.4-4.85,82.32-6.75.34-.03.69-.06,1.02-.09.18,0,.35-.03.53-.05.34-.03.68-.06,1.01-.09,1.14-.09,2.14-.18,2.98-.26.37-.03.72-.06,1.02-.09.1,0,.21-.02.3-.03.2-.02.37-.04.54-.05.27-.02.49-.04.67-.06.11,0,.21-.02.29-.03.17,0,.26-.02.26-.02,55.33,96-241.95,396.44-241.95,396.44Z"/>
    <polygon points="-1489.66 2538.88 -1491.03 2568.79 -1491.03 2538.52 -1489.66 2538.88"/>
    <polygon class="st27" points="-859.13 2508.94 -859.13 2973.95 -1491.03 2770.74 -1491.03 2568.79 -1489.66 2538.88 -1491.03 2538.52 -1491.03 2356.85 -859.13 2508.94"/>
    <polygon class="st27" points="-1489.66 2538.88 -1491.03 2568.79 -1491.03 2538.52 -1489.66 2538.88"/>
    <polygon class="st12" points="-296.8 2432.9 -296.8 2879.2 -859.13 2973.95 -859.13 2508.94 -296.8 2432.9"/>
    <path class="st24" d="M-296.8,2432.9l-562.33,76.04-631.9-152.09,543.5-54.84,16.54,3.33c-31.81,68.97-77.12,101.38-77.12,101.38l60.58,11.64h89.21s26.49-34.65,46.22-89.11l515.28,103.65Z"/>
    <path class="st23" d="M-769.09,1371.18l-6.6,296.54-.34,15.02-19.26.93-.44,7.39-9.32,156.1-.07,1.07h25.4l-.85,38.23s0,289.22-14.73,378.98c-3.82,23.28-9.9,44.76-16.8,63.81-19.73,54.46-46.22,89.11-46.22,89.11h-89.21c31.66-38.72,52.56-74.79,66.06-103.07,16.68-34.97,22.02-58,22.33-59.35,0-.05,0-.07,0-.07l11.17-402.45,4.77-171.93.21-7.61.74-26.24,7.67-276.47h65.49Z"/>
    <path class="st23" d="M-795.28,1683.67v7.47c-.08,0-.17-.02-.26-.04l-.18-.04.44-7.39Z"/>
    <path class="st15" d="M-834.57,1371.18l-7.67,276.47-.74,26.24-.21,7.61-4.77,171.93-11.17,402.45s0,.02,0,.07c-.31,1.34-5.65,24.38-22.33,59.35-13.49,28.27-34.4,64.34-66.06,103.07l-60.58-11.64s45.31-32.41,77.12-101.38c8.3-17.99,15.68-38.47,21.11-61.52l7.89-382.48,3.93-190.89.17-7.83.81-39.57,5.2-251.88h57.3Z"/>
    <polygon class="st9" points="-155.41 2895.41 -155.41 3154.71 -1614.79 3414.02 -1614.79 3144.74 -155.41 2895.41"/>
    <polygon class="st4" points="-1614.79 3144.74 -1614.79 3414.02 -3020.04 2808.15 -3020.04 2568.79 -1614.79 3144.74"/>
    <path class="st28" d="M-2447.94,2481.06c-.06,0-.1.02-.15.02.09-.02.14-.03.14-.03h0Z"/>
    <path class="st7" d="M-692.15,1678.68v169.55h-112.96l.07-1.07,9.32-156.1.18.04c.09.02.18.03.26.04v-7.47l19.26-.93,67.71-3.27,16.17-.79Z"/>
    <path class="st1" d="M-795.28,1683.67v7.47c-.08,0-.17-.02-.26-.04l-.18-.04.44-7.39Z"/>
  </g>
  <path class="st19" d="M2678.83,1493.25"/>
  <polygon class="st25" points="913.27 2566.66 893.21 2443.6 893.22 2443.6 913.27 2566.66"/>
  <path class="st25" d="M625.86,2472.3c-11.08,3.94-22.89,5.8-24.23,6,9.38-1.81,16.87-3.79,22.81-5.85h0l1.41-.15Z"/>
  <polygon class="st25" points="1622.61 2503.5 1621.21 2533.69 1621.21 2503.14 1622.61 2503.5"/>
  <path class="st18" d="M1452.87,2465.69l4.12-5.77.23.06-4.04,5.68c-.11.03-.22.05-.31.03Z"/>
  <path class="st18" d="M2990.09,2863.38l-1495.73,251.67L54.11,2533.69l184.09-19.76,75.14,34.96,111.5-52.95-.29-2.02,40.96-4.39,13.94,31.59s124.57,50.34,183.72,49.08c0,0,137.16,13.84,167.36,11.33,30.2-2.52,72.37-3.27,82.74-14.85l21.7,133.14,261.35,75.5v-75.5l166.5-35.24s-71.52-51.35-101.85-183.78c.02.04.03.06.03.06l33.86-22.66,3.67-39.96,147.85,38.91v17.67l174.83,58.88v203.86l647.64,205.12,576.33-95.64v-21.78l144.91,38.14Z"/>
  <path class="st16" d="M1454.94,2453.05s0,.04-.02.06t0,.02l-2.23,5.65-6.31,16.02v-248.16s-93.62,61.66-137.67,80.54l-10.18,111.04-3.67,39.96-33.86,22.66s0-.02-.03-.06h0s0-.03,0-.04c-.71-1.35-8.6-17.44-13.62-75.17-4.56-52.28-6.75-138.72.87-279.28v-.08c0-.06,0-.11,0-.15l43.99-30.47s.03-.02.05-.03c.02-.02.04-.03.06-.04,122.25-74.11,177.56-72.21,177.56-72.21,0,0,63.32-6.05,86.83,69.21,20.02,64.08-83.61,302.77-101.76,360.52Z"/>
  <polygon class="st22" points="1803.25 620.96 1463.48 620.96 1330.1 329.02 1644.69 329.02 1803.25 620.96"/>
  <polygon class="st14" points="1533.95 329.02 1330.1 329.02 1299.89 240.94 1410.63 240.94 1533.95 329.02"/>
  <path class="st25" d="M1330.1,329.02c-40.01,25.61-97.34,166.27-133.77,265.26,0,0,0,.02,0,.03l45.69-353.38h57.88l30.2,88.08Z"/>
  <path class="st17" d="M1463.48,620.96l-176.17,319.63c-.06.55-.18,1.12-.37,1.67-.65-.56-1.37-1.12-2.15-1.67l-123.25-246.5-.07-.13s14-43,34.84-99.64c0,0,0-.02,0-.03,36.43-98.99,93.76-239.66,133.77-265.26l133.39,291.94Z"/>
  <path class="st18" d="M1286.94,942.26c-14.4,42.76-404.41,85.09-478.36,92.74h-.03c-.11,0-.19.02-.25.03h-.08l-117.39-253s105.71-12.58,296.97-35.24c183.84-21.77,174.71-50.51,173.72-52.71l123.25,246.5c.78.55,1.5,1.11,2.15,1.67Z"/>
  <path class="st20" d="M808.56,1035.01c-.08,0-.16.02-.25.03.06,0,.13-.02.25-.03Z"/>
  <path class="st6" d="M808.23,1035.03h0c-1.31,3.8-269.89,779.88-384.43,1107.73l-.02.06c-12.85,36.77-23.75,67.9-32.13,91.67-1.48,3.3-2.93,6.64-4.36,9.99l-.07.14c-39.88,93.63-59.73,200.21-68.46,260.65-3.01,20.81-4.7,36.15-5.43,43.61l-75.14-34.96-24.17-11.25-21.49-67.14,130.87-193.79,27.68-156.04s65.44-274.32,166.11-812.91c100.67-538.58,173.66-490.76,173.66-490.76l117.39,253Z"/>
  <path class="st28" d="M491.18,2152.28c-.14.41-.29.8-.42,1.2l-3.94,8.79c1.42-3.35,2.88-6.69,4.36-9.99Z"/>
  <path class="st6" d="M2229.96,1579.07l-.83,39.94-.17,7.9-196.92-39.06c-.1-.02-.12-.03-.21-.03-3.26-.11-88.9-1.69-143.07-152.36-.03-.09-.05-.19-.09-.28l-190.81-418.39v-.02s-.32-.68-.32-.68l-.71-.19h-.03s-.03-.03-.04-.03l-161.83-44.82c-.41-.11-.76-.37-.98-.73v-57.42l135.91-98.16,6.24-9.05h0s66.74-31.2,142.24,71.98c75.5,103.18,145.97,236.57,145.97,236.57l133.39,271.81,70.39,140.81c.05.09.08.13.13.22,1.63,2.2,35.66,47.8,55.3,50.25,1.82.23,3.95.82,6.42,1.74Z"/>
  <path class="st7" d="M1697.85,1016.77c-.2-.41-.56-.73-1.01-.87l.71.19.31.68Z"/>
  <path class="st7" d="M2334.28,1640.24v7.54c-.09,0-.17-.02-.27-.04l-.18-.04.45-7.46Z"/>
  <path class="st17" d="M2423.41,1636l-69.39,3.3.34-15.16c19.77,4.22,42.15,7.69,67.46,9.81,1.19.1,1.74,1.14,1.59,2.04Z"/>
  <path class="st16" d="M2228.96,1626.91l-4.03,192.68-187.62,27.03s-3.1.98-8.73,1.96v-.19c-13.95,2.04-27.32,2.33-40.11,1.12-.06,0-.11,0-.17-.02-32.93-3.18-62.08-16.34-87.56-35.11-.17-.12-.34-.25-.51-.37-51.75-38.35-88.31-99.79-110.79-147.47,0-.03-.02-.05-.03-.07-10.1-22.01-19.8-46.59-28.95-74.04l-100.67-181.21s-27.69-37.75-57.88-37.75c0,0-15.1,50.34-95.64,108.22l-102.22,180.67-6,10.61-79.69,127.9h0s-1.97,3.15-1.97,3.15l-53.19,85.38v-252.36c0-3.41-.08-6.81-.22-10.22v-.24c-.13-2.76-.3-5.52-.52-8.28l-12.9-164.29h0s0-.39,0-.39h-.47l-87.61-70.08h-113.25l-39.84,16.53h-.02c-33.81,6.12-65.21,21.27-91.36,37.94h0l-2.16.9-2.07,1.84c-3.95,2.6-7.78,5.22-11.47,7.85-.61.44-1.22.88-1.83,1.32-1.27.91-2.52,1.82-3.75,2.74-.95.7-1.88,1.39-2.81,2.09-10.31,7.76-19.3,15.31-26.7,21.92-.41.37-.81.74-1.21,1.09-.19.17-.38.33-.56.51-1.39,1.26-2.72,2.47-3.98,3.66-.73.66-1.42,1.32-2.09,1.95-.33.32-.67.64-.99.95-.66.62-1.3,1.23-1.91,1.82-.31.3-.6.58-.9.87-.31.29-.59.57-.88.85-.48.47-.94.92-1.39,1.36-3.6,3.55-6.22,6.29-7.72,7.9-.2.21-.38.4-.53.57-.2.21-.36.38-.49.53-.13.13-.23.24-.31.32-.09.09-.13.15-.16.19,0,0-.02,0-.02,0-6.93,5.71-16.97,15.23-31.11,31.11t-.02.02c-6.84,7.68-14.62,16.84-23.5,27.77,0,0,0,.02-.02.03-33.45,41.24-82.12,107.7-152,214.76-.03.04-.05.07-.08.11l-109.08,154.1-20.02,51.37s0,0-.02.04c-1.69,3.19-115.77,219.02-103.28,371.41l20.61,143.95.29,2.02-111.5,52.95c.74-7.46,2.43-22.8,5.43-43.61,8.73-60.44,28.58-167.02,68.46-260.65l.07-.14,3.94-8.79c.13-.4.28-.79.42-1.2,8.38-23.76,19.28-54.89,32.13-91.67l.02-.06c114.54-327.85,383.12-1103.93,384.43-1107.72h0s.08,0,.08,0c.09,0,.17-.02.25-.03h.03c73.95-7.65,463.95-49.98,478.36-92.74.19-.55.32-1.12.37-1.67l176.17-319.63h339.76l-127.14,184.73h0s-6.24,9.06-6.24,9.06l-135.91,98.16v57.88l.98.27,161.87,44.83h.03c.45.15.81.47,1.01.88v.02s190.82,418.39,190.82,418.39c.04.09.06.19.09.28,54.18,150.67,139.81,152.25,143.07,152.36.09,0,.11,0,.21.03l196.92,39.06Z"/>
  <path d="M808.56,1035.01c-.08,0-.16.02-.25.03.06,0,.13-.02.25-.03Z"/>
  <polygon points="1249.56 1454 1249.08 1453.62 1249.55 1453.62 1249.56 1454"/>
  <path d="M1697.85,1016.77c-.2-.41-.56-.73-1.01-.87l.71.19.31.68Z"/>
  <path d="M1900.23,1814c-36.85-26.62-76.09-71.81-110.79-147.47,22.47,47.67,59.04,109.12,110.79,147.47Z"/>
  <path d="M2028.58,1848.39v.19c-8.4,1.46-22.42,2.88-40.11.93,12.79,1.21,26.16.93,40.11-1.12Z"/>
  <path d="M2334.28,1640.24v7.54c-.09,0-.17-.02-.27-.04l-.18-.04.45-7.46Z"/>
  <path class="st25" d="M1196.32,2699.8v75.5l-261.35-75.5-21.7-133.14-20.05-123.06-84.99-521.48-54.47,189.35c-.21,2.06-.43,4.12-.64,6.16-2.88,27.58-5.79,52.75-8.69,75.76l-27.51,164.86v.03c-.02.07-.04.13-.06.19v.05s-26.01,74.5-26.01,74.5h0c-17.51,5.85-34.32,9.78-50.38,12.12h-.02s-.05,0-.14.02c0,0-.03,0-.05,0-7.77,1.13-15.37,1.88-22.8,2.3-.16,0-.32,0-.48.02-42.37,1.6-134.51-6.95-212.91-97.37-.03-.05-.07-.09-.11-.13t0-.02c-12.49-152.38,101.59-368.22,103.28-371.41,0-.03.02-.04.02-.04l20.02-51.37,106.52-150.18c.86-1.32,1.71-2.63,2.56-3.93.03-.04.05-.07.08-.11,69.88-107.06,118.55-173.52,152-214.76,0,0,.02-.02.02-.03,8.87-10.93,16.66-20.09,23.5-27.77t.02-.02c14.14-15.87,24.17-25.4,31.11-31.11,0,0,0,0,.02,0,.27-.13,3.36-1.65,8.49-4.1h0c24.03-11.45,92.84-43.12,127.39-47.48,5.01-.63,9.29-.7,12.62-.04,7,1.38,13.19,4.33,18.6,8.07,14.3,8.05,22.95,21.3,28.06,35.83,11.72,33.24,4.95,73.21,4.95,73.21l-12.58,611.57c-4.68,102.92,1.42,186.7,10.94,251.36,16.08,109.28,41.91,163.91,41.91,163.91l112.86,108.22Z"/>
  <path class="st17" d="M1362.82,2664.56l-166.5,35.24-112.86-108.22s-25.83-54.63-41.91-163.91c-9.51-64.65-15.62-148.44-10.94-251.36l12.58-611.57s6.77-39.97-4.95-73.21l98.06-37.52h113.25v.19s0-.19,0-.19l13.41,172.58v.13s0,52.95,0,52.95l.21,191.73v.09s-.02.1-.02.1l-.02.3c-.62,7.57-8.48,104.17-13.59,220.87-.48,10.95-.94,22.07-1.36,33.33,0,.05,0,.1,0,.15v.08c-7.62,140.56-5.42,227-.87,279.28,5.02,57.73,12.91,73.82,13.62,75.17,0,0,0,.02,0,.03h0c30.33,132.44,101.85,183.79,101.85,183.79Z"/>
  <polygon class="st5" points="1249.56 1454 1249.56 1454.01 1136.31 1454.01 1249.08 1453.62 1249.55 1453.62 1249.56 1454"/>
  <path class="st2" d="M640.45,2445.14c-.06,0-.11.02-.15.02.1-.02.14-.03.14-.03h0Z"/>
  <polygon class="st17" points="1362.82 2664.56 1362.82 2732.51 1196.32 2775.3 1196.32 2699.8 1362.82 2664.56"/>
  <path class="st11" d="M1249.08,1453.62l-112.77.39-98.06,37.52c-5.11-14.53-13.76-27.78-28.06-35.83-5.41-3.74-11.6-6.69-18.6-8.07-3.32-.66-7.61-.59-12.62.04-34.55,4.36-103.36,36.03-127.39,47.47h0c-5.13,2.45-8.22,3.97-8.49,4.11.03-.04.08-.11.16-.19.08-.09.17-.19.31-.32.12-.15.29-.32.49-.53.15-.17.33-.36.53-.57,1.5-1.6,4.12-4.35,7.72-7.9.45-.44.91-.89,1.39-1.36.29-.28.57-.56.88-.85.3-.29.59-.57.9-.87.61-.59,1.25-1.2,1.91-1.82.32-.31.66-.62.99-.95.67-.63,1.37-1.29,2.09-1.95,1.26-1.18,2.59-2.4,3.98-3.66.18-.17.37-.33.56-.51.4-.35.8-.72,1.21-1.09,7.39-6.61,16.39-14.16,26.7-21.92.93-.7,1.86-1.39,2.81-2.09,1.23-.92,2.48-1.83,3.75-2.74.61-.44,1.22-.88,1.83-1.32,3.69-2.63,7.52-5.25,11.47-7.85,1.39-.92,2.8-1.83,4.23-2.74h0c26.15-16.67,57.55-31.82,91.36-37.93h.02s39.84-16.54,39.84-16.54h113.25l87.61,70.08Z"/>
  <polygon class="st0" points="1249.56 1454 1249.56 1454.01 1136.31 1454.01 1249.08 1453.62 1249.56 1454"/>
  <path class="st10" d="M1062.07,1417.51"/>
  <path class="st17" d="M625.86,2472.3c-11.08,3.94-22.89,5.8-24.23,6-.08,0-.12.02-.12.02-64.41,12.39-94.68,23.56-95.62,23.91h-.02s-26.42,18.88-26.42,18.88l-13.94-31.59-61.56-139.54s.09.09.11.13c78.4,90.41,170.54,98.97,212.91,97.37.16,0,.32-.02.48-.02,13.21-.53,21.46-2.04,22.8-2.3.02,0,.04,0,.05,0,.05,0,.1,0,.15-.02,3.01,3.04,4.63,5.84,5.18,8.41,1.84,8.67-8.59,14.78-19.77,18.76Z"/>
  <path class="st16" d="M913.27,2566.66c-10.37,11.59-52.54,12.33-82.74,14.85-30.2,2.51-167.36-11.33-167.36-11.33-59.15,1.26-183.72-49.08-183.72-49.08l26.42-18.87h.02c.94-.35,31.2-11.53,95.62-23.92,0,0,.05,0,.12-.02,1.35-.2,13.15-2.06,24.23-6,11.18-3.98,21.61-10.09,19.77-18.76-.72-4.79-4.89-8.18-5.17-8.41,16.07-2.34,32.88-6.28,50.38-12.11h0s26-74.51,26-74.51v-.05s.04-.07.04-.07l.02-.12v-.03s27.52-164.86,27.52-164.86c2.9-23.01,5.81-48.19,8.69-75.76.21-2.04.43-4.1.64-6.16l54.47-189.35.85,5.25,84.13,516.23,20.06,123.06Z"/>
  <path class="st25" d="M2028.58,1848.39v53.59s-.1,0-.27.02l-.3.03c-.18.02-.41.04-.69.06-.17,0-.35.03-.55.05-.1,0-.2.02-.31.03l-1.05.09c-.86.08-1.89.16-3.06.26-.33.03-.68.06-1.03.09-.18.02-.36.04-.54.05-.33.03-.69.06-1.04.09l-84.37,6.81c-4.68,0-97.71,31.63-110.53,36.01l-.29.1-.26.09c-.09.03-.16.05-.23.08-.11.04-.22.07-.3.1-.09.03-.16.06-.22.08-.11.04-.17.06-.17.06,0,0-.03-.41-.1-1.19l1.45-2.05v-54.93c0-26.02-5.98-51.95-19.11-74.41-43.44-74.22-121.82-53.59-121.82-53.59l-96.81,5.22-148.3,17.43-120.33,18.37,79.69-127.9,6-10.61s38.6,15.47,357.94-64.98c0,0,8.94,29.88,27.42,69.1,0,.02.02.04.03.07,22.47,47.67,59.04,109.12,110.79,147.47.16.12.33.25.51.37,25.47,18.77,54.62,31.93,87.56,35.11.06,0,.11,0,.17.02,12.79,1.21,26.16.93,40.11-1.12Z"/>
  <path class="st6" d="M1824.74,1942.79l-1.45,2.05c.07.78.1,1.19.1,1.19l-283.63,397.81-1.82,2.56-80.94,113.52-4.12,5.77-6.49,9.11,6.31-16.02,2.23-5.65s0,0,0-.02c0-.02,0-.04.02-.06,18.15-57.75,121.78-296.44,101.76-360.52-23.52-75.26-86.83-69.21-86.83-69.21,0,0-55.31-1.9-177.56,72.21-.02,0-.04.02-.06.04-.02,0-.03.02-.05.03l-43.99,30.47c.42-11.25.88-22.38,1.36-33.33,5.11-116.7,12.97-213.29,13.59-220.87l.02-.3v-.1s.02-.09.02-.09l-.21-191.73v-52.85c.14,3.41.22,6.81.22,10.22v252.36l53.19-85.38,1.97-3.14h0s120.33-18.38,120.33-18.38l148.3-17.43,96.81-5.22s78.38-20.63,121.82,53.59c13.13,22.46,19.11,48.39,19.11,74.41v54.93Z"/>
  <path class="st16" d="M1780.6,2302.15l-159.39,17.61v213.92l-174.83-58.88,6.49-9.11,4.12-5.77,80.94-113.52,1.82-2.56,283.63-397.81s.06-.02.17-.06c.06-.02.13-.05.22-.08.08-.03.18-.06.3-.1.07-.03.14-.05.23-.08l.26-.09.29-.1c12.82-4.37,105.85-36.01,110.53-36.01,4.05,0,61.9-4.9,84.37-6.81.35-.03.71-.06,1.04-.09.18,0,.36-.03.54-.05.35-.03.7-.06,1.03-.09,1.17-.1,2.2-.18,3.06-.26.38-.03.74-.06,1.05-.09.11,0,.21-.02.31-.03.2-.02.38-.04.55-.05.28-.02.51-.04.69-.06.11,0,.21-.02.3-.03.17,0,.27-.02.27-.02,56.71,96.9-247.98,400.17-247.98,400.17Z"/>
  <polygon points="1622.61 2503.5 1621.21 2533.69 1621.21 2503.14 1622.61 2503.5"/>
  <polygon class="st8" points="2268.84 2473.28 2268.84 2942.66 1621.21 2737.54 1621.21 2533.69 1622.61 2503.5 1621.21 2503.14 1621.21 2319.76 2268.84 2473.28"/>
  <polygon class="st27" points="1622.61 2503.5 1621.21 2533.69 1621.21 2503.14 1622.61 2503.5"/>
  <polygon class="st16" points="2845.18 2396.53 2845.18 2847.02 2268.84 2942.66 2268.84 2473.28 2845.18 2396.53"/>
  <path class="st18" d="M2845.18,2396.53l-576.33,76.76-647.64-153.52,557.04-55.36,16.95,3.36c-32.6,69.62-79.04,102.33-79.04,102.33l62.08,11.75h91.44s27.15-34.98,47.38-89.95l528.12,104.63Z"/>
  <path class="st16" d="M2361.13,1324.82l-6.76,299.33-.34,15.16-19.74.94-.45,7.46-9.55,157.57-.07,1.08h26.04l-.87,38.59s0,291.94-15.1,382.55c-3.92,23.5-10.14,45.18-17.22,64.42-20.22,54.97-47.38,89.95-47.38,89.95h-91.44c32.45-39.08,53.87-75.49,67.7-104.03,17.1-35.3,22.57-58.55,22.89-59.91,0-.05,0-.07,0-.07l11.45-406.23,4.89-173.55.21-7.68.75-26.49,7.86-279.07h67.12Z"/>
  <path class="st23" d="M2334.28,1640.24v7.54c-.09,0-.17-.02-.27-.04l-.18-.04.45-7.46Z"/>
  <path class="st17" d="M2294.01,1324.82l-7.86,279.07-.75,26.49-.21,7.68-4.89,173.55-11.45,406.23s0,.02,0,.07c-.31,1.36-5.79,24.6-22.89,59.91-13.83,28.54-35.25,64.95-67.7,104.03l-62.08-11.75s46.44-32.71,79.04-102.33c8.51-18.16,16.08-38.84,21.63-62.09l8.09-386.08,4.03-192.68.17-7.9.83-39.94,5.33-254.25h58.72Z"/>
  <polygon class="st8" points="2990.09 2863.38 2990.09 3125.12 1494.36 3386.87 1494.36 3115.06 2990.09 2863.38"/>
  <polygon class="st16" points="1494.36 3115.06 1494.36 3386.87 54.11 2775.3 54.11 2533.69 1494.36 3115.06"/>
  <path class="st28" d="M640.45,2445.14c-.06,0-.11.02-.15.02.1-.02.14-.03.14-.03h0Z"/>
  <path class="st17" d="M2439.99,1635.21v171.14h-115.77l.07-1.08,9.55-157.57.18.04c.1.02.18.03.27.04v-7.54l19.74-.94,69.39-3.3,16.57-.79Z"/>
  <path class="st1" d="M2334.28,1640.24v7.54c-.09,0-.17-.02-.27-.04l-.18-.04.45-7.46Z"/>
</svg>