<?xml version="1.0" encoding="UTF-8"?>
<svg id="Layer_2_xA0_Image" xmlns="http://www.w3.org/2000/svg" version="1.1" viewBox="0 0 3044.2 3509.87">
  <!-- Generator: Adobe Illustrator 29.8.7, SVG Export Plug-In . SVG Version: 2.1.1 Build 1)  -->
  <defs>
    <style>
      .st0 {
        fill: #8e8fc6;
      }

      .st1 {
        fill: #21222f;
      }

      .st2 {
        fill: #282939;
      }

      .st3 {
        fill: #606186;
      }

      .st4 {
        fill: #3a3b53;
      }

      .st5 {
        fill: #1a1a25;
      }

      .st6 {
        fill: #21212e;
      }

      .st7 {
        fill: #595a7d;
      }

      .st8 {
        fill: #222230;
      }

      .st9 {
        fill: #191a24;
      }

      .st10 {
        fill: #252533;
      }

      .st11 {
        fill: #181822;
      }

      .st12 {
        fill: #bcbcff;
      }

      .st13 {
        fill: #535473;
      }

      .st14 {
        fill: #6c6d96;
      }

      .st15 {
        fill: #2b2b3c;
      }

      .st16 {
        fill: #0f0f14;
      }

      .st17 {
        fill: #8a8bc0;
      }

      .st18 {
        fill: #8889bf;
      }

      .st19 {
        fill: #232331;
      }

      .st20 {
        fill: #13131a;
      }

      .st21 {
        fill: #1f202c;
      }

      .st22 {
        fill: #0c0c0f;
      }
    </style>
  </defs>
  <path class="st13" d="M3000.04,1200.42"/>
  <polygon class="st18" points="882.45 2603.99 862.87 2482.08 862.88 2482.08 882.45 2603.99"/>
  <path class="st18" d="M602.02,2510.51c-10.81,3.9-22.33,5.74-23.64,5.94,9.15-1.8,16.46-3.76,22.25-5.79h0l1.38-.15Z"/>
  <polygon class="st18" points="1574.54 2541.43 1573.17 2571.33 1573.17 2541.07 1574.54 2541.43"/>
  <path class="st12" d="M1408.93,2503.97l4.02-5.72.22.06-3.94,5.63c-.11.03-.21.05-.3.03Z"/>
  <path class="st18" d="M2908.79,2897.95l-1459.38,249.33L44.16,2571.33l179.61-19.58,73.32,34.63,108.79-52.46-.28-2,39.96-4.35,13.6,31.29s121.54,49.87,179.26,48.62c0,0,133.83,13.71,163.29,11.22,29.47-2.5,70.61-3.24,80.73-14.71l21.17,131.9,254.99,74.8v-74.8l162.45-34.91s-69.78-50.87-99.37-182.07c.02.04.03.06.03.06l33.04-22.45,3.58-39.59,144.25,38.55v17.51l170.58,58.34v201.96l631.9,203.21,562.33-94.75v-21.57l141.39,37.78Z"/>
  <path d="M1410.95,2491.45s0,.04-.02.06t0,.02l-2.17,5.6-6.16,15.87v-245.84s-91.35,61.09-134.32,79.79l-9.93,110-3.58,39.59-33.04,22.45s0-.02-.03-.06h0s0-.03,0-.04c-.69-1.33-8.39-17.28-13.29-74.47-4.45-51.79-6.59-137.42.85-276.67v-.08c0-.06,0-.1,0-.15l42.92-30.19s.03-.02.05-.03c.02-.02.04-.03.06-.04,119.28-73.42,173.25-71.54,173.25-71.54,0,0,61.78-5.99,84.72,68.56,19.53,63.48-81.58,299.95-99.29,357.16Z"/>
  <polygon class="st7" points="1750.79 676.42 1419.28 676.42 1289.14 387.2 1596.09 387.2 1750.79 676.42"/>
  <polygon class="st3" points="1488.04 387.2 1289.14 387.2 1259.67 299.94 1367.72 299.94 1488.04 387.2"/>
  <path class="st15" d="M1289.14,387.2c-39.04,25.37-94.97,164.72-130.52,262.79,0,0,0,.02,0,.03l44.58-350.08h56.47l29.47,87.26Z"/>
  <path class="st10" d="M1419.28,676.42l-171.89,316.65c-.06.55-.18,1.11-.36,1.66-.63-.56-1.33-1.11-2.1-1.66l-120.26-244.21-.07-.13s13.66-42.6,34-98.71c0,0,0-.02,0-.03,35.54-98.07,91.48-237.42,130.52-262.79l130.14,289.22Z"/>
  <path class="st14" d="M1247.03,994.73c-14.05,42.36-394.58,84.3-466.73,91.88h-.03c-.11,0-.19.02-.24.03h-.07l-114.53-250.64s103.14-12.46,289.76-34.91c179.37-21.56,170.46-50.04,169.5-52.22l120.26,244.21c.76.55,1.46,1.1,2.1,1.66Z"/>
  <path class="st14" d="M780.28,1086.61c-.07,0-.16.02-.24.03.06,0,.13-.02.24-.03Z"/>
  <path class="st21" d="M779.96,1086.64h0c-1.28,3.77-263.33,772.61-375.08,1097.41l-.02.06c-12.53,36.43-23.18,67.27-31.35,90.81-1.44,3.27-2.86,6.58-4.25,9.9l-.07.14c-38.91,92.76-58.27,198.34-66.79,258.22-2.94,20.62-4.59,35.82-5.3,43.21l-73.32-34.63-23.59-11.15-20.97-66.51,127.69-191.98,27.01-154.59s63.85-271.76,162.07-805.33c98.23-533.56,169.43-486.19,169.43-486.19l114.53,250.64Z"/>
  <path class="st21" d="M470.62,2193.47c-.14.41-.28.79-.41,1.19l-3.84,8.71c1.39-3.32,2.81-6.62,4.25-9.9Z"/>
  <path class="st6" d="M2167.13,1625.6l-.81,39.57-.17,7.83-192.14-38.69c-.09-.02-.12-.03-.2-.03-3.18-.11-86.74-1.67-139.59-150.95-.03-.09-.05-.19-.08-.27l-186.17-414.49v-.02s-.31-.67-.31-.67l-.69-.19h-.03s-.03-.03-.04-.03l-157.9-44.4c-.4-.11-.75-.37-.96-.72v-56.89l132.6-97.25,6.09-8.97h0s65.11-30.91,138.78,71.31c73.67,102.22,142.43,234.37,142.43,234.37l130.14,269.27,68.68,139.5c.05.09.07.13.13.22,1.59,2.18,34.79,47.35,53.96,49.78,1.78.23,3.85.81,6.26,1.72Z"/>
  <path class="st6" d="M1647.95,1068.55c-.2-.41-.55-.72-.99-.86l.69.19.3.67Z"/>
  <path class="st6" d="M2268.92,1686.21v7.47c-.08,0-.17-.02-.26-.04l-.18-.04.44-7.39Z"/>
  <path class="st6" d="M2355.88,1682.01l-67.71,3.27.34-15.02c19.29,4.18,41.13,7.62,65.82,9.72,1.16.09,1.7,1.13,1.55,2.02Z"/>
  <path d="M2166.15,1673l-3.93,190.89-183.06,26.78s-3.03.97-8.52,1.94v-.19c-13.61,2.02-26.65,2.31-39.13,1.11-.06,0-.11,0-.17-.02-32.13-3.15-60.58-16.19-85.43-34.78-.17-.12-.34-.25-.49-.37-50.49-37.99-86.17-98.86-108.09-146.09,0-.03-.02-.05-.03-.07-9.85-21.8-19.32-46.16-28.25-73.35l-98.23-179.52s-27.02-37.4-56.48-37.4c0,0-14.73,49.87-93.31,107.21l-99.74,178.98-5.85,10.51-77.75,126.71h0s-1.92,3.12-1.92,3.12l-51.9,84.59v-250.01c0-3.38-.07-6.75-.21-10.12v-.24c-.13-2.73-.29-5.47-.5-8.2l-12.59-162.76h0s0-.39,0-.39h-.46l-85.48-69.43h-110.5l-38.87,16.38h-.02c-32.99,6.07-63.62,21.07-89.14,37.58h0l-2.11.89-2.02,1.83c-3.86,2.57-7.6,5.18-11.19,7.78-.6.44-1.19.87-1.79,1.31-1.24.9-2.46,1.81-3.66,2.72-.92.69-1.84,1.38-2.74,2.07-10.06,7.68-18.83,15.17-26.05,21.72-.4.37-.79.73-1.18,1.08-.19.17-.37.33-.55.5-1.36,1.25-2.66,2.45-3.89,3.62-.71.65-1.39,1.31-2.04,1.93-.33.32-.65.63-.97.94-.64.62-1.27,1.22-1.86,1.81-.3.29-.59.58-.88.86-.3.28-.58.57-.86.84-.47.46-.91.91-1.35,1.34-3.51,3.52-6.07,6.24-7.53,7.83-.2.21-.37.4-.52.57-.2.21-.35.38-.48.53-.13.13-.22.24-.3.32-.08.09-.13.15-.16.19,0,0-.02,0-.02,0-6.77,5.66-16.56,15.09-30.35,30.82t-.02.02c-6.67,7.61-14.27,16.68-22.93,27.51,0,0,0,.02-.02.03-32.64,40.86-80.13,106.7-148.31,212.76-.03.04-.05.07-.07.1l-106.43,152.67-19.53,50.89s0,0-.02.04c-1.65,3.16-112.96,216.98-100.77,367.95l20.11,142.61.28,2-108.79,52.46c.72-7.39,2.37-22.59,5.3-43.21,8.52-59.88,27.88-165.46,66.79-258.22l.07-.14,3.84-8.71c.13-.4.27-.79.41-1.19,8.17-23.54,18.82-54.38,31.35-90.81l.02-.06c111.76-324.8,373.81-1093.64,375.08-1097.4h0s.07,0,.07,0c.08,0,.17-.02.24-.03h.03c72.15-7.58,452.68-49.52,466.73-91.88.19-.55.31-1.11.36-1.66l171.89-316.65h331.51l-124.05,183h0s-6.09,8.98-6.09,8.98l-132.6,97.25v57.34l.96.26,157.93,44.42h.03c.44.15.79.46.99.87v.02s186.18,414.49,186.18,414.49c.04.09.06.19.08.27,52.86,149.27,136.42,150.83,139.59,150.95.08,0,.11,0,.2.03l192.14,38.69Z"/>
  <path d="M780.28,1086.61c-.07,0-.16.02-.24.03.06,0,.13-.02.24-.03Z"/>
  <polygon points="1210.56 1501.7 1210.09 1501.32 1210.55 1501.32 1210.56 1501.7"/>
  <path d="M1647.95,1068.55c-.2-.41-.55-.72-.99-.86l.69.19.3.67Z"/>
  <path d="M1845.42,1858.35c-35.95-26.37-74.24-71.14-108.09-146.09,21.93,47.23,57.6,108.1,108.09,146.09Z"/>
  <path d="M1970.64,1892.42v.19c-8.19,1.45-21.87,2.86-39.13.92,12.48,1.2,25.53.92,39.13-1.11Z"/>
  <path d="M2268.92,1686.21v7.47c-.08,0-.17-.02-.26-.04l-.18-.04.44-7.39Z"/>
  <path class="st2" d="M1158.61,2735.89v74.8l-254.99-74.8-21.17-131.9-19.56-121.91-82.92-516.62-53.15,187.58c-.21,2.04-.42,4.08-.62,6.1-2.81,27.32-5.65,52.26-8.48,75.06l-26.84,163.32v.03c-.02.07-.04.13-.06.19v.05s-25.38,73.81-25.38,73.81h0c-17.08,5.79-33.48,9.69-49.16,12.01h-.02s-.05,0-.14.02c0,0-.03,0-.05,0-7.59,1.12-14.99,1.86-22.24,2.28-.16,0-.31,0-.47.02-41.34,1.59-131.24-6.89-207.74-96.46-.03-.05-.07-.09-.11-.13t0-.02c-12.19-150.96,99.12-364.79,100.77-367.95,0-.03.02-.04.02-.04l19.53-50.89,103.93-148.78c.84-1.31,1.67-2.6,2.5-3.89.03-.04.05-.07.07-.1,68.18-106.06,115.67-171.9,148.31-212.76,0,0,.02-.02.02-.03,8.66-10.83,16.25-19.9,22.93-27.51t.02-.02c13.79-15.73,23.59-25.16,30.35-30.82,0,0,0,0,.02,0,.26-.13,3.28-1.64,8.28-4.06h0c23.45-11.35,90.58-42.71,124.29-47.04,4.88-.62,9.07-.69,12.31-.04,6.83,1.37,12.87,4.29,18.14,8,13.95,7.98,22.39,21.1,27.38,35.49,11.43,32.93,4.83,72.53,4.83,72.53l-12.27,605.87c-4.57,101.96,1.39,184.96,10.67,249.01,15.69,108.26,40.89,162.39,40.89,162.39l110.12,107.21Z"/>
  <path class="st5" d="M1321.07,2700.98l-162.45,34.91-110.12-107.21s-25.2-54.13-40.89-162.39c-9.28-64.05-15.24-147.06-10.67-249.01l12.27-605.87s6.61-39.6-4.83-72.53l95.68-37.17h110.5v.19s0-.19,0-.19l13.08,170.97v.13s0,52.46,0,52.46l.2,189.94v.09s-.02.09-.02.09l-.02.29c-.61,7.5-8.28,103.2-13.26,218.81-.47,10.84-.91,21.87-1.32,33.01,0,.05,0,.09,0,.15v.08c-7.44,139.25-5.29,224.88-.85,276.67,4.9,57.19,12.6,73.14,13.29,74.47,0,0,0,.02,0,.03h0c29.59,131.21,99.37,182.08,99.37,182.08Z"/>
  <polygon class="st5" points="1210.56 1501.7 1210.56 1501.71 1100.06 1501.71 1210.09 1501.32 1210.55 1501.32 1210.56 1501.7"/>
  <path class="st2" d="M616.26,2483.6c-.06,0-.1.02-.15.02.09-.02.14-.03.14-.03h0Z"/>
  <polygon class="st5" points="1321.07 2700.98 1321.07 2768.3 1158.61 2810.69 1158.61 2735.89 1321.07 2700.98"/>
  <path class="st0" d="M1210.09,1501.32l-110.03.39-95.68,37.17c-4.99-14.39-13.43-27.52-27.38-35.49-5.27-3.71-11.31-6.62-18.14-8-3.24-.65-7.43-.59-12.31.04-33.71,4.32-100.84,35.69-124.29,47.03h0c-5,2.43-8.02,3.94-8.28,4.07.03-.04.07-.1.16-.19.07-.09.17-.19.3-.32.12-.15.28-.32.48-.53.15-.17.33-.36.52-.57,1.46-1.59,4.02-4.31,7.53-7.83.44-.44.89-.88,1.35-1.34.28-.27.56-.56.86-.84.29-.28.58-.57.88-.86.6-.59,1.22-1.19,1.86-1.81.32-.3.64-.61.97-.94.65-.62,1.33-1.28,2.04-1.93,1.23-1.17,2.53-2.38,3.89-3.62.18-.17.36-.33.55-.5.39-.35.78-.71,1.18-1.08,7.21-6.55,15.99-14.03,26.05-21.72.9-.69,1.82-1.38,2.74-2.07,1.2-.91,2.42-1.82,3.66-2.72.6-.44,1.19-.87,1.79-1.31,3.6-2.6,7.33-5.2,11.19-7.78,1.36-.91,2.73-1.82,4.13-2.72h0c25.52-16.51,56.15-31.52,89.14-37.58h.02s38.87-16.39,38.87-16.39h110.5l85.48,69.43Z"/>
  <polygon class="st0" points="1210.56 1501.7 1210.56 1501.71 1100.06 1501.71 1210.09 1501.32 1210.56 1501.7"/>
  <path class="st0" d="M1027.62,1465.56"/>
  <path class="st21" d="M602.02,2510.51c-10.81,3.9-22.33,5.74-23.64,5.94-.07,0-.12.02-.12.02-62.85,12.27-92.38,23.34-93.3,23.68h-.02s-25.78,18.71-25.78,18.71l-13.6-31.29-60.06-138.24s.08.09.11.13c76.49,89.57,166.4,98.05,207.74,96.46.16,0,.31-.02.47-.02,12.89-.53,20.94-2.02,22.24-2.28.02,0,.04,0,.05,0,.05,0,.09,0,.15-.02,2.94,3.01,4.52,5.78,5.05,8.33,1.8,8.59-8.38,14.64-19.29,18.58Z"/>
  <path d="M882.45,2603.99c-10.12,11.48-51.27,12.22-80.73,14.71-29.47,2.49-163.29-11.22-163.29-11.22-57.71,1.25-179.26-48.62-179.26-48.62l25.78-18.7h.02c.91-.35,30.45-11.42,93.3-23.69,0,0,.05,0,.12-.02,1.31-.2,12.83-2.04,23.64-5.94,10.91-3.95,21.09-9.99,19.29-18.58-.7-4.74-4.77-8.1-5.04-8.33,15.67-2.32,32.08-6.22,49.16-12h0s25.37-73.82,25.37-73.82v-.05s.04-.07.04-.07l.02-.12v-.03s26.85-163.32,26.85-163.32c2.83-22.8,5.67-47.74,8.48-75.06.2-2.02.42-4.06.62-6.1l53.15-187.58.83,5.2,82.08,511.42,19.57,121.91Z"/>
  <path class="st19" d="M1970.64,1892.42v53.09s-.09,0-.26.02l-.29.03c-.18.02-.4.04-.67.06-.17,0-.34.03-.54.05-.09,0-.2.02-.3.03l-1.02.09c-.84.08-1.85.16-2.98.26-.33.03-.66.06-1.01.09-.18.02-.35.04-.53.05-.33.03-.67.06-1.02.09l-82.32,6.75c-4.57,0-95.34,31.34-107.84,35.67l-.28.09-.25.09c-.08.03-.16.05-.22.08-.11.04-.21.07-.29.09-.08.03-.16.06-.21.08-.11.04-.17.06-.17.06,0,0-.03-.41-.09-1.18l1.42-2.03v-54.42c0-25.78-5.83-51.47-18.65-73.71-42.38-73.53-118.86-53.09-118.86-53.09l-94.46,5.17-144.69,17.27-117.4,18.2,77.75-126.71,5.85-10.51s37.66,15.33,349.24-64.37c0,0,8.72,29.6,26.76,68.45,0,.02.02.04.03.07,21.93,47.23,57.6,108.1,108.09,146.09.16.12.33.25.49.37,24.85,18.59,53.3,31.63,85.43,34.78.06,0,.11,0,.17.02,12.48,1.2,25.53.92,39.13-1.11Z"/>
  <path class="st22" d="M1771.76,1985.93l-1.42,2.03c.07.78.09,1.18.09,1.18l-276.74,394.1-1.78,2.54-78.97,112.46-4.02,5.72-6.34,9.03,6.16-15.87,2.17-5.6s0,0,0-.02c0-.02,0-.04.02-.06,17.71-57.21,118.82-293.68,99.29-357.16-22.94-74.55-84.72-68.56-84.72-68.56,0,0-53.97-1.88-173.25,71.54-.02,0-.04.02-.06.04-.02,0-.03.02-.05.03l-42.92,30.19c.41-11.15.86-22.17,1.32-33.01,4.99-115.61,12.66-211.31,13.26-218.81l.02-.29v-.09s.02-.09.02-.09l-.2-189.94v-52.36c.14,3.38.21,6.75.21,10.12v250.01l51.9-84.59,1.92-3.11h0s117.4-18.21,117.4-18.21l144.69-17.27,94.46-5.17s76.47-20.44,118.86,53.09c12.81,22.25,18.65,47.94,18.65,73.71v54.42Z"/>
  <path d="M1728.69,2341.95l-155.52,17.45v211.93l-170.58-58.34,6.34-9.03,4.02-5.72,78.97-112.46,1.78-2.54,276.74-394.1s.06-.02.17-.06c.06-.02.13-.05.21-.08.07-.03.18-.06.29-.09.07-.03.14-.05.22-.08l.25-.09.28-.09c12.51-4.33,103.28-35.67,107.84-35.67,3.95,0,60.4-4.85,82.32-6.75.34-.03.69-.06,1.02-.09.18,0,.35-.03.53-.05.34-.03.68-.06,1.01-.09,1.14-.09,2.14-.18,2.98-.26.37-.03.72-.06,1.02-.09.1,0,.21-.02.3-.03.2-.02.37-.04.54-.05.27-.02.49-.04.67-.06.11,0,.21-.02.29-.03.17,0,.26-.02.26-.02,55.33,96-241.95,396.44-241.95,396.44Z"/>
  <polygon points="1574.54 2541.43 1573.17 2571.33 1573.17 2541.07 1574.54 2541.43"/>
  <polygon class="st20" points="2205.07 2511.49 2205.07 2976.49 1573.17 2773.29 1573.17 2571.33 1574.54 2541.43 1573.17 2541.07 1573.17 2359.4 2205.07 2511.49"/>
  <polygon class="st20" points="1574.54 2541.43 1573.17 2571.33 1573.17 2541.07 1574.54 2541.43"/>
  <polygon class="st9" points="2767.4 2435.45 2767.4 2881.75 2205.07 2976.49 2205.07 2511.49 2767.4 2435.45"/>
  <path class="st17" d="M2767.4,2435.45l-562.33,76.04-631.9-152.09,543.5-54.84,16.54,3.33c-31.81,68.97-77.12,101.38-77.12,101.38l60.58,11.64h89.21s26.49-34.65,46.22-89.11l515.28,103.65Z"/>
  <path class="st16" d="M2295.11,1373.72l-6.6,296.54-.34,15.02-19.26.93-.44,7.39-9.32,156.1-.07,1.07h25.4l-.85,38.23s0,289.22-14.73,378.98c-3.82,23.28-9.9,44.76-16.8,63.81-19.73,54.46-46.22,89.11-46.22,89.11h-89.21c31.66-38.72,52.56-74.79,66.06-103.07,16.68-34.97,22.02-58,22.33-59.35,0-.05,0-.07,0-.07l11.17-402.45,4.77-171.93.21-7.61.74-26.24,7.67-276.47h65.49Z"/>
  <path class="st16" d="M2268.92,1686.21v7.47c-.08,0-.17-.02-.26-.04l-.18-.04.44-7.39Z"/>
  <path class="st11" d="M2229.63,1373.72l-7.67,276.47-.74,26.24-.21,7.61-4.77,171.93-11.17,402.45s0,.02,0,.07c-.31,1.34-5.65,24.38-22.33,59.35-13.49,28.27-34.4,64.34-66.06,103.07l-60.58-11.64s45.31-32.41,77.12-101.38c8.3-17.99,15.68-38.47,21.11-61.52l7.89-382.48,3.93-190.89.17-7.83.81-39.57,5.2-251.88h57.3Z"/>
  <polygon class="st8" points="2908.79 2897.95 2908.79 3157.25 1449.41 3416.56 1449.41 3147.28 2908.79 2897.95"/>
  <polygon class="st4" points="1449.41 3147.28 1449.41 3416.56 44.16 2810.69 44.16 2571.33 1449.41 3147.28"/>
  <path class="st21" d="M616.26,2483.6c-.06,0-.1.02-.15.02.09-.02.14-.03.14-.03h0Z"/>
  <path class="st6" d="M2372.05,1681.22v169.55h-112.96l.07-1.07,9.32-156.1.18.04c.09.02.18.03.26.04v-7.47l19.26-.93,67.71-3.27,16.17-.79Z"/>
  <path class="st1" d="M2268.92,1686.21v7.47c-.08,0-.17-.02-.26-.04l-.18-.04.44-7.39Z"/>
</svg>