<?xml version="1.0" encoding="UTF-8"?>
<svg id="Layer_2_xA0_Image" xmlns="http://www.w3.org/2000/svg" version="1.1" viewBox="0 0 3044.2 3509.87">
  <!-- Generator: Adobe Illustrator 30.4.0, SVG Export Plug-In . SVG Version: 2.1.4 Build 226)  -->
  <defs>
    <style>
      .st0 {
        fill: #8e8fc6;
      }

      .st1 {
        fill: #21222f;
      }

      .st2 {
        fill: #282939;
      }

      .st3 {
        fill: #1a1a25;
      }

      .st4 {
        fill: #747398;
      }

      .st5 {
        fill: #21212e;
      }

      .st6 {
        fill: #595a7d;
      }

      .st7 {
        fill: #cacaff;
      }

      .st8 {
        fill: #e4e4ff;
      }

      .st9 {
        fill: #ccf;
      }

      .st10 {
        fill: #65648a;
      }

      .st11 {
        fill: #6e6d91;
      }

      .st12 {
        fill: #bcbcff;
      }

      .st13 {
        fill: #535473;
      }

      .st14 {
        fill: #6c6d96;
      }

      .st15 {
        fill: #a6a6e5;
      }

      .st16 {
        fill: #0f0f14;
      }

      .st17 {
        fill: #8889bf;
      }

      .st18 {
        fill: #13131a;
      }

      .st19 {
        fill: #1f202c;
      }
    </style>
  </defs>
  <path class="st13" d="M-978.73,707.71"/>
  <polygon class="st17" points="941.32 2425.31 921.26 2302.25 921.27 2302.25 941.32 2425.31"/>
  <path class="st17" d="M653.91,2330.95c-11.08,3.94-22.89,5.8-24.23,6,9.38-1.81,16.87-3.79,22.81-5.85h0l1.41-.15h.01Z"/>
  <polygon class="st17" points="1650.66 2362.16 1649.26 2392.34 1649.26 2361.79 1650.66 2362.16"/>
  <path class="st12" d="M1480.92,2324.34l4.12-5.77.23.06-4.04,5.68c-.11.03-.22.05-.31.03Z"/>
  <path class="st12" d="M3018.14,2722.04l-1495.73,251.67L82.15,2392.34l184.09-19.76,75.14,34.96,111.5-52.95-.29-2.02,40.96-4.39,13.94,31.59s124.57,50.34,183.72,49.08c0,0,137.16,13.84,167.36,11.33,30.2-2.52,72.37-3.27,82.74-14.85l21.7,133.14,261.35,75.5v-75.5l166.5-35.24s-71.52-51.35-101.85-183.78c.02.04.03.06.03.06l33.86-22.66,3.67-39.96,147.85,38.91v17.67l174.83,58.88v203.86l647.64,205.12,576.33-95.64v-21.78l144.91,38.14h.01Z"/>
  <path class="st10" d="M1482.99,2311.71s0,.04-.02.06c-.01.01-.01.02,0,.02l-2.23,5.65-6.31,16.02v-248.16s-93.62,61.66-137.67,80.54l-10.18,111.04-3.67,39.96-33.86,22.66s0-.02-.03-.06h0v-.04c-.71-1.35-8.6-17.44-13.62-75.17-4.56-52.28-6.75-138.72.87-279.28v-.23l43.99-30.47s.03-.02.05-.03c.02-.02.04-.03.06-.04,122.25-74.11,177.56-72.21,177.56-72.21,0,0,63.32-6.05,86.83,69.21,20.02,64.08-83.61,302.77-101.76,360.52h-.01Z"/>
  <polygon class="st15" points="1831.3 479.61 1491.53 479.61 1358.15 187.67 1672.74 187.67 1831.3 479.61"/>
  <polygon class="st9" points="1562 187.67 1358.15 187.67 1327.95 99.59 1438.68 99.59 1562 187.67"/>
  <path class="st17" d="M1358.15,187.67c-40.01,25.61-97.34,166.27-133.77,265.26v.03l45.69-353.38h57.88l30.2,88.08h0Z"/>
  <path class="st11" d="M1491.53,479.61l-176.17,319.63c-.06.55-.18,1.12-.37,1.67-.65-.56-1.37-1.12-2.15-1.67l-123.25-246.5-.07-.13s14-43,34.84-99.64v-.03c36.43-98.99,93.76-239.66,133.77-265.26l133.39,291.94h0Z"/>
  <path class="st12" d="M1314.99,800.91c-14.4,42.76-404.41,85.09-478.36,92.74h-.03c-.11,0-.19.02-.25.03h-.08l-117.39-253s105.71-12.58,296.97-35.24c183.84-21.77,174.71-50.51,173.72-52.71l123.25,246.5c.78.55,1.5,1.11,2.15,1.67h.02Z"/>
  <path class="st14" d="M836.61,893.66c-.08,0-.16.02-.25.03.06,0,.13-.02.25-.03Z"/>
  <path class="st4" d="M836.28,893.69h0c-1.31,3.8-269.89,779.88-384.43,1107.73l-.02.06c-12.85,36.77-23.75,67.9-32.13,91.67-1.48,3.3-2.93,6.64-4.36,9.99l-.07.14c-39.88,93.63-59.73,200.21-68.46,260.65-3.01,20.81-4.7,36.15-5.43,43.61l-75.14-34.96-24.17-11.25-21.49-67.14,130.87-193.79,27.68-156.04s65.44-274.32,166.11-812.91c100.67-538.58,173.66-490.76,173.66-490.76l117.39,253h-.01Z"/>
  <path class="st19" d="M519.23,2010.93c-.14.41-.29.8-.42,1.2l-3.94,8.79c1.42-3.35,2.88-6.69,4.36-9.99h0Z"/>
  <path class="st4" d="M2258.01,1437.72l-.83,39.94-.17,7.9-196.92-39.06c-.1-.02-.12-.03-.21-.03-3.26-.11-88.9-1.69-143.07-152.36-.03-.09-.05-.19-.09-.28l-190.81-418.39v-.02l-.32-.68-.71-.19h-.03s-.03-.03-.04-.03l-161.83-44.82c-.41-.11-.76-.37-.98-.73v-57.42l135.91-98.16,6.24-9.05h0s66.74-31.2,142.24,71.98,145.97,236.57,145.97,236.57l133.39,271.81,70.39,140.81c.05.09.08.13.13.22,1.63,2.2,35.66,47.8,55.3,50.25,1.82.23,3.95.82,6.42,1.74h.02Z"/>
  <path class="st5" d="M1725.9,875.42c-.2-.41-.56-.73-1.01-.87l.71.19.31.68h-.01Z"/>
  <path class="st5" d="M2362.33,1498.9v7.54c-.09,0-.17-.02-.27-.04l-.18-.04.45-7.46Z"/>
  <path class="st11" d="M2451.46,1494.66l-69.39,3.3.34-15.16c19.77,4.22,42.15,7.69,67.46,9.81,1.19.1,1.74,1.14,1.59,2.04h0Z"/>
  <path class="st10" d="M2257.01,1485.56l-4.03,192.68-187.62,27.03s-3.1.98-8.73,1.96v-.19c-13.95,2.04-27.32,2.33-40.11,1.12-.06,0-.11,0-.17-.02-32.93-3.18-62.08-16.34-87.56-35.11-.17-.12-.34-.25-.51-.37-51.75-38.35-88.31-99.79-110.79-147.47,0-.03-.02-.05-.03-.07-10.1-22.01-19.8-46.59-28.95-74.04l-100.67-181.21s-27.69-37.75-57.88-37.75c0,0-15.1,50.34-95.64,108.22l-102.22,180.67-6,10.61-79.69,127.9h0l-1.97,3.15-53.19,85.38v-252.36c0-3.41-.08-6.81-.22-10.22v-.24c-.13-2.76-.3-5.52-.52-8.28l-12.9-164.29h0v-.39h-.47l-87.61-70.08h-113.25l-39.84,16.53h-.02c-33.81,6.12-65.21,21.27-91.36,37.94h0l-2.16.9-2.07,1.84c-3.95,2.6-7.78,5.22-11.47,7.85-.61.44-1.22.88-1.83,1.32-1.27.91-2.52,1.82-3.75,2.74-.95.7-1.88,1.39-2.81,2.09-10.31,7.76-19.3,15.31-26.7,21.92-.41.37-.81.74-1.21,1.09-.19.17-.38.33-.56.51-1.39,1.26-2.72,2.47-3.98,3.66-.73.66-1.42,1.32-2.09,1.95-.33.32-.67.64-.99.95-.66.62-1.3,1.23-1.91,1.82-.31.3-.6.58-.9.87-.31.29-.59.57-.88.85-.48.47-.94.92-1.39,1.36-3.6,3.55-6.22,6.29-7.72,7.9-.2.21-.38.4-.53.57-.2.21-.36.38-.49.53-.13.13-.23.24-.31.32-.09.09-.13.15-.16.19h-.02c-6.93,5.71-16.97,15.23-31.11,31.11q-9.43,10.59-.02.02c-6.84,7.68-14.62,16.84-23.5,27.77,0,0,0,.02-.02.03-33.45,41.24-82.12,107.7-152,214.76-.03.04-.05.07-.08.11l-109.08,154.1-20.02,51.37-.02.04c-1.69,3.19-115.77,219.02-103.28,371.41l20.61,143.95.29,2.02-111.5,52.95c.74-7.46,2.43-22.8,5.43-43.61,8.73-60.44,28.58-167.02,68.46-260.65l.07-.14,3.94-8.79c.13-.4.28-.79.42-1.2,8.38-23.76,19.28-54.89,32.13-91.67l.02-.06c114.54-327.85,383.12-1103.93,384.43-1107.72h.08c.09,0,.17-.02.25-.03h.03c73.95-7.65,463.95-49.98,478.36-92.74.19-.55.32-1.12.37-1.67l176.17-319.63h339.76l-127.14,184.73h0l-6.24,9.06-135.91,98.16v57.88l.98.27,161.87,44.83h.03c.45.15.81.47,1.01.88v.02l190.82,418.39c.04.09.06.19.09.28,54.18,150.67,139.81,152.25,143.07,152.36.09,0,.11,0,.21.03l196.92,39.06h-.02Z"/>
  <path d="M836.61,893.66c-.08,0-.16.02-.25.03.06,0,.13-.02.25-.03Z"/>
  <polygon points="1277.61 1312.65 1277.13 1312.27 1277.6 1312.27 1277.61 1312.65"/>
  <path d="M1725.9,875.42c-.2-.41-.56-.73-1.01-.87l.71.19.31.68h-.01Z"/>
  <path d="M1928.28,1672.66c-36.85-26.62-76.09-71.81-110.79-147.47,22.47,47.67,59.04,109.12,110.79,147.47Z"/>
  <path d="M2056.63,1707.04v.19c-8.4,1.46-22.42,2.88-40.11.93,12.79,1.21,26.16.93,40.11-1.12Z"/>
  <path d="M2362.33,1498.9v7.54c-.09,0-.17-.02-.27-.04l-.18-.04.45-7.46Z"/>
  <path class="st17" d="M1224.37,2558.45v75.5l-261.35-75.5-21.7-133.14-20.05-123.06-84.99-521.48-54.47,189.35c-.21,2.06-.43,4.12-.64,6.16-2.88,27.58-5.79,52.75-8.69,75.76l-27.51,164.86v.03c-.02.07-.04.13-.06.19v.05l-26.01,74.5h0c-17.51,5.85-34.32,9.78-50.38,12.12h-.02s-.05,0-.14.02h-.05c-7.77,1.13-15.37,1.88-22.8,2.3-.16,0-.32,0-.48.02-42.37,1.6-134.51-6.95-212.91-97.37-.03-.05-.07-.09-.11-.13-.03-.03-.03-.03,0-.02-12.49-152.38,101.59-368.22,103.28-371.41,0-.03.02-.04.02-.04l20.02-51.37,106.52-150.18c.86-1.32,1.71-2.63,2.56-3.93.03-.04.05-.07.08-.11,69.88-107.06,118.55-173.52,152-214.76,0,0,.02-.02.02-.03,8.87-10.93,16.66-20.09,23.5-27.77q4.56-5.12.02-.02c14.14-15.87,24.17-25.4,31.11-31.11h.02c.27-.13,3.36-1.65,8.49-4.1h0c24.03-11.45,92.84-43.12,127.39-47.48,5.01-.63,9.29-.7,12.62-.04,7,1.38,13.19,4.33,18.6,8.07,14.3,8.05,22.95,21.3,28.06,35.83,11.72,33.24,4.95,73.21,4.95,73.21l-12.58,611.57c-4.68,102.92,1.42,186.7,10.94,251.36,16.08,109.28,41.91,163.91,41.91,163.91l112.86,108.22-.03.02Z"/>
  <path class="st11" d="M1390.87,2523.21l-166.5,35.24-112.86-108.22s-25.83-54.63-41.91-163.91c-9.51-64.65-15.62-148.44-10.94-251.36l12.58-611.57s6.77-39.97-4.95-73.21l98.06-37.52h113.25v.19-.19l13.41,172.58v53.08l.21,191.73v.09l-.02.1-.02.3c-.62,7.57-8.48,104.17-13.59,220.87-.48,10.95-.94,22.07-1.36,33.33v.23c-7.62,140.56-5.42,227-.87,279.28,5.02,57.73,12.91,73.82,13.62,75.17v.03h0c30.33,132.44,101.85,183.79,101.85,183.79l.04-.03Z"/>
  <polygon class="st3" points="1277.61 1312.65 1277.61 1312.66 1164.36 1312.66 1277.13 1312.27 1277.6 1312.27 1277.61 1312.65"/>
  <path class="st2" d="M668.5,2303.79c-.06,0-.11.02-.15.02.1-.02.14-.03.14-.03h.01Z"/>
  <polygon class="st11" points="1390.87 2523.21 1390.87 2591.16 1224.37 2633.95 1224.37 2558.45 1390.87 2523.21"/>
  <path class="st8" d="M1277.13,1312.27l-112.77.39-98.06,37.52c-5.11-14.53-13.76-27.78-28.06-35.83-5.41-3.74-11.6-6.69-18.6-8.07-3.32-.66-7.61-.59-12.62.04-34.55,4.36-103.36,36.03-127.39,47.47h0c-5.13,2.45-8.22,3.97-8.49,4.11.03-.04.08-.11.16-.19.08-.09.17-.19.31-.32.12-.15.29-.32.49-.53.15-.17.33-.36.53-.57,1.5-1.6,4.12-4.35,7.72-7.9.45-.44.91-.89,1.39-1.36.29-.28.57-.56.88-.85.3-.29.59-.57.9-.87.61-.59,1.25-1.2,1.91-1.82.32-.31.66-.62.99-.95.67-.63,1.37-1.29,2.09-1.95,1.26-1.18,2.59-2.4,3.98-3.66.18-.17.37-.33.56-.51.4-.35.8-.72,1.21-1.09,7.39-6.61,16.39-14.16,26.7-21.92.93-.7,1.86-1.39,2.81-2.09,1.23-.92,2.48-1.83,3.75-2.74.61-.44,1.22-.88,1.83-1.32,3.69-2.63,7.52-5.25,11.47-7.85,1.39-.92,2.8-1.83,4.23-2.74h0c26.15-16.67,57.55-31.82,91.36-37.93h.02l39.84-16.54h113.25l87.61,70.08h0Z"/>
  <polygon class="st0" points="1277.61 1312.65 1277.61 1312.66 1164.36 1312.66 1277.13 1312.27 1277.61 1312.65"/>
  <path class="st7" d="M1090.12,1276.17"/>
  <path class="st11" d="M653.91,2330.95c-11.08,3.94-22.89,5.8-24.23,6-.08,0-.12.02-.12.02-64.41,12.39-94.68,23.56-95.62,23.91h-.02l-26.42,18.88-13.94-31.59-61.56-139.54s.09.09.11.13c78.4,90.41,170.54,98.97,212.91,97.37.16,0,.32-.02.48-.02,13.21-.53,21.46-2.04,22.8-2.3h.05c.05,0,.1,0,.15-.02,3.01,3.04,4.63,5.84,5.18,8.41,1.84,8.67-8.59,14.78-19.77,18.76h0Z"/>
  <path class="st10" d="M941.32,2425.31c-10.37,11.59-52.54,12.33-82.74,14.85-30.2,2.51-167.36-11.33-167.36-11.33-59.15,1.26-183.72-49.08-183.72-49.08l26.42-18.87h.02c.94-.35,31.2-11.53,95.62-23.92,0,0,.05,0,.12-.02,1.35-.2,13.15-2.06,24.23-6,11.18-3.98,21.61-10.09,19.77-18.76-.72-4.79-4.89-8.18-5.17-8.41,16.07-2.34,32.88-6.28,50.38-12.11h0l26-74.51v-.05l.04-.07.02-.12v-.03l27.52-164.86c2.9-23.01,5.81-48.19,8.69-75.76.21-2.04.43-4.1.64-6.16l54.47-189.35.85,5.25,84.13,516.23,20.06,123.06v.02Z"/>
  <path class="st17" d="M2056.63,1707.04v53.59s-.1,0-.27.02l-.3.03c-.18.02-.41.04-.69.06-.17,0-.35.03-.55.05-.1,0-.2.02-.31.03l-1.05.09c-.86.08-1.89.16-3.06.26-.33.03-.68.06-1.03.09-.18.02-.36.04-.54.05-.33.03-.69.06-1.04.09l-84.37,6.81c-4.68,0-97.71,31.63-110.53,36.01l-.29.1-.26.09c-.09.03-.16.05-.23.08-.11.04-.22.07-.3.1-.09.03-.16.06-.22.08-.11.04-.17.06-.17.06,0,0-.03-.41-.1-1.19l1.45-2.05v-54.93c0-26.02-5.98-51.95-19.11-74.41-43.44-74.22-121.82-53.59-121.82-53.59l-96.81,5.22-148.3,17.43-120.33,18.37,79.69-127.9,6-10.61s38.6,15.47,357.94-64.98c0,0,8.94,29.88,27.42,69.1,0,.02.02.04.03.07,22.47,47.67,59.04,109.12,110.79,147.47.16.12.33.25.51.37,25.47,18.77,54.62,31.93,87.56,35.11.06,0,.11,0,.17.02,12.79,1.21,26.16.93,40.11-1.12v-.07Z"/>
  <path class="st4" d="M1852.79,1801.44l-1.45,2.05c.07.78.1,1.19.1,1.19l-283.63,397.81-1.82,2.56-80.94,113.52-4.12,5.77-6.49,9.11,6.31-16.02,2.23-5.65v-.02s0-.04.02-.06c18.15-57.75,121.78-296.44,101.76-360.52-23.52-75.26-86.83-69.21-86.83-69.21,0,0-55.31-1.9-177.56,72.21-.02,0-.04.02-.06.04-.02,0-.03.02-.05.03l-43.99,30.47c.42-11.25.88-22.38,1.36-33.33,5.11-116.7,12.97-213.29,13.59-220.87l.02-.3v-.1l.02-.09-.21-191.73v-52.85c.14,3.41.22,6.81.22,10.22v252.36l53.19-85.38,1.97-3.14h0l120.33-18.38,148.3-17.43,96.81-5.22s78.38-20.63,121.82,53.59c13.13,22.46,19.11,48.39,19.11,74.41v54.96Z"/>
  <path class="st10" d="M1808.65,2160.8l-159.39,17.61v213.92l-174.83-58.88,6.49-9.11,4.12-5.77,80.94-113.52,1.82-2.56,283.63-397.81s.06-.02.17-.06c.06-.02.13-.05.22-.08.08-.03.18-.06.3-.1.07-.03.14-.05.23-.08l.26-.09.29-.1c12.82-4.37,105.85-36.01,110.53-36.01,4.05,0,61.9-4.9,84.37-6.81.35-.03.71-.06,1.04-.09.18,0,.36-.03.54-.05.35-.03.7-.06,1.03-.09,1.17-.1,2.2-.18,3.06-.26.38-.03.74-.06,1.05-.09.11,0,.21-.02.31-.03.2-.02.38-.04.55-.05.28-.02.51-.04.69-.06.11,0,.21-.02.3-.03.17,0,.27-.02.27-.02,56.71,96.9-247.98,400.17-247.98,400.17v.05Z"/>
  <polygon points="1650.66 2362.16 1649.26 2392.34 1649.26 2361.79 1650.66 2362.16"/>
  <polygon class="st6" points="2296.89 2331.94 2296.89 2801.31 1649.26 2596.2 1649.26 2392.34 1650.66 2362.16 1649.26 2361.79 1649.26 2178.42 2296.89 2331.94"/>
  <polygon class="st18" points="1650.66 2362.16 1649.26 2392.34 1649.26 2361.79 1650.66 2362.16"/>
  <polygon class="st10" points="2873.23 2255.18 2873.23 2705.68 2296.89 2801.31 2296.89 2331.94 2873.23 2255.18"/>
  <path class="st12" d="M2873.23,2255.18l-576.33,76.76-647.64-153.52,557.04-55.36,16.95,3.36c-32.6,69.62-79.04,102.33-79.04,102.33l62.08,11.75h91.44s27.15-34.98,47.38-89.95l528.12,104.63Z"/>
  <path class="st10" d="M2389.18,1183.47l-6.76,299.33-.34,15.16-19.74.94-.45,7.46-9.55,157.57-.07,1.08h26.04l-.87,38.59s0,291.94-15.1,382.55c-3.92,23.5-10.14,45.18-17.22,64.42-20.22,54.97-47.38,89.95-47.38,89.95h-91.44c32.45-39.08,53.87-75.49,67.7-104.03,17.1-35.3,22.57-58.55,22.89-59.91v-.07l11.45-406.23,4.89-173.55.21-7.68.75-26.49,7.86-279.07h67.12v-.02Z"/>
  <path class="st16" d="M2362.33,1498.9v7.54c-.09,0-.17-.02-.27-.04l-.18-.04.45-7.46Z"/>
  <path class="st11" d="M2322.06,1183.47l-7.86,279.07-.75,26.49-.21,7.68-4.89,173.55-11.45,406.23v.07c-.31,1.36-5.79,24.6-22.89,59.91-13.83,28.54-35.25,64.95-67.7,104.03l-62.08-11.75s46.44-32.71,79.04-102.33c8.51-18.16,16.08-38.84,21.63-62.09l8.09-386.08,4.03-192.68.17-7.9.83-39.94,5.33-254.25h58.72,0Z"/>
  <polygon class="st6" points="3018.14 2722.04 3018.14 2983.78 1522.41 3245.52 1522.41 2973.71 3018.14 2722.04"/>
  <polygon class="st10" points="1522.41 2973.71 1522.41 3245.52 82.16 2633.95 82.16 2392.34 1522.41 2973.71"/>
  <path class="st19" d="M668.5,2303.79c-.06,0-.11.02-.15.02.1-.02.14-.03.14-.03h.01Z"/>
  <path class="st11" d="M2468.04,1493.86v171.14h-115.77l.07-1.08,9.55-157.57.18.04c.1.02.18.03.27.04v-7.54l19.74-.94,69.39-3.3,16.57-.79Z"/>
  <path class="st1" d="M2362.33,1498.9v7.54c-.09,0-.17-.02-.27-.04l-.18-.04.45-7.46Z"/>
</svg>