<?xml version="1.0" encoding="UTF-8"?>
<svg id="Layer_1" xmlns="http://www.w3.org/2000/svg" version="1.1" viewBox="0 0 320.08 89.95">
  <!-- Generator: Adobe Illustrator 30.4.0, SVG Export Plug-In . SVG Version: 2.1.4 Build 226)  -->
  <defs>
    <style>
      .st0 {
        fill: #0e1215;
      }
    </style>
  </defs>
  <polygon class="st0" points="316.12 62.58 266.59 61.02 267.74 13.4 278.07 12.62 278.07 49.41 316.12 44.18 316.12 62.58"/>
  <path class="st0" d="M300.14,12.31c11.56.59,18.66,11.64,12.9,20.7s-20.86,9.44-27.07.49c-6.25-9.03.68-20.62,12.57-21.19h1.6Z"/>
  <path class="st0" d="M190.49,28.52h-12.76c-1.58,0-3.32,1.62-3.39,3.01.18,3.25-.28,6.75,0,9.97.5,6.04,9.82,3.59,14.26,4.09l2.42.16c0,1.46.08,2.86-.2,4.3-1.27,6.44-7.69,11.49-15.11,11.84-2.94.14-7.29.17-10.13-.34-7.89-1.41-14.18-7.67-14.64-14.82s.36-14.7,0-21.91c.56-6.63,6.73-11.64,14.17-11.96,3.41-.15,7.81-.16,11.22,0,7.92.36,13.8,5.7,14.17,12.66.05,1-.05,2.01,0,3h0Z"/>
  <path class="st0" d="M208.42,13.48v14.07c0,.24.25,1.06.35,1.33,1.99,5.05,12.36,4.05,12.36-1.48v-13.91h11.74v32c-.28,7.75-6.87,14.34-15.59,15.38-10.65,1.27-20.08-5.72-20.6-15.14V13.5h11.75v-.02h-.01Z"/>
  <polygon class="st0" points="55.6 14.57 56.48 35.22 36.8 32.42 42.36 63.43 21.61 63.67 26.38 32.26 9.16 36.08 8.55 15.58 55.6 14.57"/>
  <path class="st0" d="M150.41,60.71l-49.7.78,26.23-47.33c.86-1.04,2.28-.89,2.76.34l20.7,46.21h.01Z"/>
  <polygon class="st0" points="72.99 14.57 73.7 49.17 99.12 42.94 99.74 61.49 61.78 62.19 61.78 14.57 72.99 14.57"/>
  <polygon class="st0" points="254.31 27.36 258.65 61.02 236.75 60.24 240.64 27.35 254.31 27.36"/>
  <polygon class="st0" points="241.17 23.3 242.32 13.48 252.51 13.48 253.79 23.3 241.17 23.3"/>
</svg>